# xmcd CD database file
#
# Track frame offsets:
#	225
#	17286
#	32907
#	45161
#	59072
#	78703
#	91746
#	111803
#	124579
#	146186
#	161402
#	175976
#	198600
#	212965
#	227434
#
# Disc length: 3302 seconds
#
# Revision: 1
# Processed by: cddbd v1.5.2PL0 Copyright (c) Steve Scherf et al.
# Submitted via: CDex 1.70beta2
#
DISCID=c90ce30f
DTITLE=Taxmeni - Calamity Jane 3
DYEAR=1997
DGENRE=Country
TTITLE0=Hrat, hrat, hrat
TTITLE1=Spitfire a flak
TTITLE2=Lilly Marlene
TTITLE3=Kdyz
TTITLE4=Rahna z Franklinovych lodi
TTITLE5=Maybellene
TTITLE6=Most u Remagenu
TTITLE7=Tricet vterin nad Tokiem
TTITLE8=Buraky
TTITLE9=Rodny dum
TTITLE10=Betonove hranice
TTITLE11=Cizinecka legie
TTITLE12=Patriot
TTITLE13=Neberte nam nasi viru
TTITLE14=Jo, to jsem jeste zil
EXTD=YEAR: 1997
EXTT0=
EXTT1=
EXTT2=
EXTT3=
EXTT4=
EXTT5=
EXTT6=
EXTT7=
EXTT8=
EXTT9=
EXTT10=
EXTT11=
EXTT12=
EXTT13=
EXTT14=
PLAYORDER=
